<svg xmlns="http://www.w3.org/2000/svg" width="21" height="20" viewBox="0 0 18 17">
    <path fill="currentColor" fill-rule="nonzero" d="M5.479 4.403l1.638-3.25A2.104 2.104 0 0 1 9 0c.796 0 1.527.445 1.882 1.152l1.64 3.251 3.673.522c.79.112 1.451.657 1.7 1.41.252.759.042 1.593-.538 2.146l-2.646 2.525.624 3.558a2.07 2.07 0 0 1-.844 2.044 2.119 2.119 0 0 1-2.2.157L9 15.071l-3.29 1.693a2.12 2.12 0 0 1-2.2-.156 2.07 2.07 0 0 1-.845-2.043l.624-3.56L.643 8.483a2.062 2.062 0 0 1-.538-2.145c.249-.755.91-1.3 1.7-1.412l3.674-.522zM9 2c-.045 0-.081.022-.097.052L6.794 6.236l-.517.074-4.192.596c-.042.005-.072.03-.082.06-.007.023-.001.048.02.068l3.42 3.263-.092.527-.716 4.086c-.004.024.007.05.034.069a.12.12 0 0 0 .068.021c.02 0 .04-.005.057-.013L9 12.822l.458.236 3.75 1.93a.12.12 0 0 0 .055.012.12.12 0 0 0 .068-.021c.027-.02.038-.045.034-.07l-.808-4.612.387-.37 3.033-2.893c.021-.02.027-.045.02-.07-.01-.028-.04-.053-.083-.059l-4.708-.669-.235-.466L9.096 2.05C9.081 2.022 9.045 2 9 2z"/>
</svg>
