<svg xmlns="http://www.w3.org/2000/svg" width="25" height="25" viewBox="0 0 16 20">
    <g fill="currentColor" fill-rule="nonzero">
        <path d="M8 5.895a2.105 2.105 0 1 0 0 4.21 2.105 2.105 0 0 0 0-4.21"/>
        <path d="M8 11.193a3.193 3.193 0 1 1 0-6.386 3.193 3.193 0 0 1 0 6.386m7.158-4.456H13.32a5.433 5.433 0 0 0-.666-1.605l1.3-1.3a.844.844 0 0 0 0-1.19l-.596-.597a.846.846 0 0 0-1.19 0l-1.3 1.3a5.447 5.447 0 0 0-1.606-.666V.842A.845.845 0 0 0 8.421 0H7.58a.845.845 0 0 0-.842.842V2.68a5.447 5.447 0 0 0-1.606.666l-1.3-1.3a.846.846 0 0 0-1.19 0l-.596.597a.844.844 0 0 0 0 1.19l1.3 1.3c-.302.49-.53 1.029-.666 1.605H.842A.845.845 0 0 0 0 7.579v.842c0 .463.379.842.842.842H2.68c.136.577.364 1.117.666 1.606l-1.3 1.3a.844.844 0 0 0 0 1.19l.596.596a.846.846 0 0 0 1.19 0l1.3-1.299c.49.302 1.029.53 1.606.666v1.836c0 .463.379.842.842.842h.842a.845.845 0 0 0 .842-.842v-1.836a5.438 5.438 0 0 0 1.606-.666l1.3 1.3a.846.846 0 0 0 1.19 0l.596-.597a.844.844 0 0 0 0-1.19l-1.3-1.3c.302-.49.53-1.029.666-1.606h1.837A.845.845 0 0 0 16 8.421V7.58a.845.845 0 0 0-.842-.842"/>
    </g>
</svg>
