<svg xmlns="http://www.w3.org/2000/svg" width="36" height="36" viewBox="0 0 36 36">
    <g fill="currentColor" fill-rule="evenodd">
        <path fill="currentColor" d="M-320-504h1440v985H-320z"/>
        <g fill="#8B9BB3" fill-rule="nonzero">
            <path d="M22 25a3 3 0 1 0 0-6 3 3 0 0 0 0 6zm0 2a5 5 0 1 1 0-10 5 5 0 0 1 0 10z"/>
            <path d="M13 14.414l-1.293 1.293a1 1 0 0 1-1.414-1.414L11.586 13 10.5 11.914 9.146 13.27a1 1 0 1 1-1.415-1.415l2.062-2.061a1 1 0 0 1 1.414 0l8.5 8.5a1 1 0 0 1-1.414 1.414L13 14.414z"/>
            <path fill-opacity=".2" d="M18 36C8.059 36 0 27.941 0 18S8.059 0 18 0s18 8.059 18 18-8.059 18-18 18zm0-1.846c8.922 0 16.154-7.232 16.154-16.154S26.922 1.846 18 1.846 1.846 9.078 1.846 18 9.078 34.154 18 34.154z"/>
        </g>
    </g>
</svg>
