<svg xmlns="http://www.w3.org/2000/svg" width="19" height="12" viewBox="0 0 19 12">
    <g fill="none" fill-rule="evenodd">
        <path d="M-1-4h20v20H-1z"/>
        <path fill="currentColor" d="M9.332 12C5.556 12 2.53 10.282.252 6.847A1.515 1.515 0 0 1 .26 5.16C2.59 1.72 5.613 0 9.332 0c3.72 0 6.744 1.72 9.073 5.16.344.509.347 1.175.008 1.687C16.136 10.282 13.109 12 9.333 12zm-.118-1.895c2.176 0 3.94-1.838 3.94-4.105 0-2.267-1.764-4.105-3.94-4.105S5.274 3.733 5.274 6c0 2.267 1.764 4.105 3.94 4.105zm0-2.105a2 2 0 1 1 0-4 2 2 0 0 1 0 4z"/>
    </g>
</svg>
