<svg xmlns="http://www.w3.org/2000/svg" width="20" height="20" viewBox="0 0 20 20">
    <g fill="none" fill-rule="evenodd">
        <path d="M0 0h20v20H0z"/>
        <path fill="currentColor" fill-rule="nonzero" d="M17.669 10c0 .233-.012.467-.034.702l1.703.983a1 1 0 0 1 .366 1.367l-2.25 3.897a1 1 0 0 1-1.366.366l-1.705-.985a7.759 7.759 0 0 1-1.214.7V19a1 1 0 0 1-1 1h-4.5a1 1 0 0 1-1-1v-1.97a7.759 7.759 0 0 1-1.214-.7l-1.705.985a1 1 0 0 1-1.366-.366l-2.25-3.897A1 1 0 0 1 .5 11.685l1.703-.983a7.375 7.375 0 0 1 0-1.404L.5 8.314a1 1 0 0 1-.366-1.366l2.25-3.897a1 1 0 0 1 1.366-.366l1.705.985a7.759 7.759 0 0 1 1.214-.7V1a1 1 0 0 1 1-1h4.5a1 1 0 0 1 1 1v1.97c.426.197.832.431 1.214.7l1.705-.985a1 1 0 0 1 1.366.366l2.25 3.897a1 1 0 0 1-.366 1.366l-1.703.984c.023.235.034.469.034.702zm-2 0c0-.34-.034-.687-.1-1.05a1 1 0 0 1 .483-1.047l1.42-.82-1.25-2.166-1.42.82a1 1 0 0 1-1.15-.105 5.759 5.759 0 0 0-1.817-1.047 1 1 0 0 1-.666-.942V2h-2.5v1.643a1 1 0 0 1-.666.942 5.759 5.759 0 0 0-1.818 1.047 1 1 0 0 1-1.149.105l-1.42-.82-1.25 2.166 1.42.82A1 1 0 0 1 4.27 8.95c-.067.364-.101.711-.101 1.051 0 .34.034.687.1 1.052a1 1 0 0 1-.483 1.046l-1.42.82 1.25 2.165 1.42-.82a1 1 0 0 1 1.15.105c.531.454 1.147.81 1.817 1.047a1 1 0 0 1 .666.942V18h2.5v-1.643a1 1 0 0 1 .666-.942 5.759 5.759 0 0 0 1.818-1.047 1 1 0 0 1 1.149-.105l1.42.82 1.25-2.165-1.42-.82a1 1 0 0 1-.484-1.046c.067-.365.101-.713.101-1.052z"/>
        <path fill="currentColor" fill-rule="nonzero" d="M10 13a3 3 0 1 1 0-6 3 3 0 0 1 0 6zm0-2a1 1 0 1 0 0-2 1 1 0 0 0 0 2z"/>
    </g>
</svg>
