<svg xmlns="http://www.w3.org/2000/svg" width="20" height="18" viewBox="0 0 20 18">
    <g fill="none" fill-rule="evenodd">
        <path d="M0-1h20v20H0z"/>
        <path fill="currentColor" d="M17.2 4C18.971 4 20 5.118 20 6.958V15c0 1.863-1.023 3-2.8 3H2.8C1.023 18 0 16.863 0 15V3C0 1.185 1.011.062 2.8 0h12.925a1 1 0 1 1 0 2H2.835C2.189 2.022 2 2.232 2 3v12c0 .803.177 1 .8 1h14.4c.623 0 .8-.197.8-1V6.958c0-.771-.172-.958-.8-.958H4.631a1 1 0 0 1 0-2H17.2zM16 11a2 2 0 1 1-4.002-.001A2 2 0 0 1 16 11z"/>
    </g>
</svg>
