<svg xmlns="http://www.w3.org/2000/svg" width="20" height="20" viewBox="0 0 20 20">
    <g fill="none" fill-rule="evenodd">
        <path d="M0 0h20v20H0z"/>
        <path fill="currentColor" d="M19.86 4.427c.081.08.127.229.14.446v.255c-.013.217-.059.365-.14.446l-4.28 4.279a.504.504 0 0 1-.714 0l-.714-.713a.504.504 0 0 1 0-.713L16.58 6H7.5a.5.5 0 0 1-.5-.5v-1a.5.5 0 0 1 .5-.5h9.08l-2.428-2.427a.503.503 0 0 1 0-.712l.714-.714a.504.504 0 0 1 .713 0l4.281 4.279zM12.5 14a.5.5 0 0 1 .5.5v1a.5.5 0 0 1-.5.5H3.42l2.428 2.426a.506.506 0 0 1 0 .713l-.714.714a.507.507 0 0 1-.714 0L.14 15.574c-.081-.08-.128-.23-.14-.447v-.254c.012-.217.059-.366.14-.447l4.28-4.279a.507.507 0 0 1 .714 0l.714.714a.506.506 0 0 1 0 .713L3.42 14h9.08z"/>
    </g>
</svg>
