<svg xmlns="http://www.w3.org/2000/svg" width="20" height="20" viewBox="0 0 20 20">
    <g fill="none" fill-rule="evenodd">
        <path d="M0 0h20v20H0z"/>
        <path fill="currentColor" fill-rule="evenodd" d="M2 17h2v1h14V2H4v1H2V2a2 2 0 0 1 2-2h14a2 2 0 0 1 2 2v16a2 2 0 0 1-2 2H4a2 2 0 0 1-2-2v-1zM1 5h4a1 1 0 1 1 0 2H1a1 1 0 1 1 0-2zm0 4h4a1 1 0 1 1 0 2H1a1 1 0 0 1 0-2zm0 4h4a1 1 0 0 1 0 2H1a1 1 0 0 1 0-2zm11-5a2 2 0 1 1 0-4 2 2 0 0 1 0 4zm-2 2h4a1 1 0 0 1 1 1v3a1 1 0 0 1-1 1h-4a1 1 0 0 1-1-1v-3a1 1 0 0 1 1-1z"/>
    </g>
</svg>
