<?xml version="1.0" encoding="UTF-8"?>
<svg width="20px" height="15px" viewBox="0 0 20 15" version="1.1" xmlns="http://www.w3.org/2000/svg" xmlns:xlink="http://www.w3.org/1999/xlink">
    <g id="Mobile-App" stroke="none" stroke-width="1" fill="none" fill-rule="evenodd">
        <g id="OTC---Mobile-Dashboard-1" transform="translate(-304.000000, -736.000000)" fill-rule="nonzero">
            <g id="Group-10" transform="translate(0.000000, 722.000000)">
                <g id="Group-6" transform="translate(23.000000, 11.000000)">
                    <g id="Group-2" transform="translate(254.000000, 0.000000)">
                        <g id="icon-20px-activity" transform="translate(27.000000, 0.000000)">
                            <rect id="Rectangle" x="0" y="0" width="20" height="20"></rect>
                            <path fill="currentColor" d="M6.35949657,7.07842877 L4.99167979,10.3824987 C4.83694566,10.7562713 4.47225878,11 4.06772377,11 L1,11 C0.44771525,11 -9.30505493e-14,10.5522847 -6.39488462e-14,10 C-3.48471432e-14,9.44771525 0.44771525,9 1,9 L3.39940053,9 L5.62764394,3.61750127 C5.99197483,2.73743112 7.26384858,2.81679994 7.51594087,3.73533679 L10.196161,13.501129 L12.6758902,5.80490027 C12.9336465,5.00491319 14.0034314,4.86047708 14.4641106,5.56346518 L16.7161263,9 L19,9 C19.5522847,9 20,9.44771525 20,10 C20,10.5522847 19.5522847,11 19,11 L16.1758507,11 C15.8386974,11 15.5242417,10.8301073 15.3394446,10.5481102 L13.937951,8.40945658 L11.0712622,17.3066751 C10.7664938,18.2525715 9.41812467,18.2230084 9.155107,17.2646632 L6.35949657,7.07842877 Z" id="Line-31"></path>
                        </g>
                    </g>
                </g>
            </g>
        </g>
    </g>
</svg>