<svg xmlns="http://www.w3.org/2000/svg" width="20" height="21" viewBox="0 0 20 21">
    <g fill="none" fill-rule="evenodd">
        <path d="M0 0h20v20H0z"/>
        <path fill="currentColor" d="M15.014 9.112c.066.362.098.698.098 1.03 0 .331-.032.668-.098 1.03l-.133.731 1.976 1.153-1.156 2.021-.935-.546a1.705 1.705 0 0 0-1.895.123c-.345.26-.723.48-1.122.654a1.722 1.722 0 0 0-1.046 1.575V18H8.412v-1.117c0-.681-.41-1.3-1.045-1.575a5.543 5.543 0 0 1-1.124-.656 1.706 1.706 0 0 0-1.891-.123l-.938.548-1.155-2.021 1.976-1.153-.133-.731a5.693 5.693 0 0 1-.098-1.03c0-.332.032-.668.098-1.03l.133-.73-1.976-1.154 1.155-2.021.938.548a1.713 1.713 0 0 0 1.892-.124 5.55 5.55 0 0 1 1.123-.655 1.723 1.723 0 0 0 1.045-1.575V2.117h2.29v1.284c0 .681.412 1.299 1.046 1.574.4.175.778.395 1.124.656.559.42 1.3.469 1.892.124l.938-.548 1.155 2.021-1.976 1.154.133.73zm3.252 2.314l-1.066-.622a7.393 7.393 0 0 0 0-1.324l1.066-.622a1.726 1.726 0 0 0 .624-2.339L17.337 3.8a1.697 1.697 0 0 0-1.041-.806 1.686 1.686 0 0 0-1.302.174l-1.06.618a7.673 7.673 0 0 0-1.113-.649V1.883C12.82.992 12.119 0 11.11 0H8.005c-1.007 0-1.71.992-1.71 1.883v1.254c-.39.185-.762.403-1.113.649l-1.06-.618a1.686 1.686 0 0 0-1.301-.174 1.696 1.696 0 0 0-1.04.804L.225 6.52a1.727 1.727 0 0 0 .624 2.338l1.067.622a7.393 7.393 0 0 0 0 1.324l-1.067.622a1.727 1.727 0 0 0-.624 2.339l1.554 2.719c.227.4.597.687 1.04.806.445.121.907.058 1.302-.174l1.06-.618c.35.246.724.464 1.114.649V18.4c0 .947.767 1.717 1.709 1.717h3.108c.942 0 1.709-.77 1.709-1.717v-1.253c.39-.185.763-.403 1.114-.649l1.059.618c.396.232.859.292 1.303.174a1.695 1.695 0 0 0 1.039-.804l1.555-2.722a1.726 1.726 0 0 0-.625-2.338z"/>
        <path fill="currentColor" d="M9.5 11c-.551 0-1-.449-1-1 0-.551.449-1 1-1 .551 0 1 .449 1 1 0 .551-.449 1-1 1m0-4c-1.654 0-3 1.346-3 3s1.346 3 3 3 3-1.346 3-3-1.346-3-3-3"/>
    </g>
</svg>
