<svg xmlns="http://www.w3.org/2000/svg" width="36" height="36" viewBox="0 0 36 36">
    <g fill="currentColor" fill-rule="evenodd">
        <path fill-opacity=".2" fill-rule="nonzero" d="M18 36C8.059 36 0 27.941 0 18S8.059 0 18 0s18 8.059 18 18-8.059 18-18 18zm0-1.846c8.922 0 16.154-7.232 16.154-16.154S26.922 1.846 18 1.846 1.846 9.078 1.846 18 9.078 34.154 18 34.154z"/>
        <path d="M19 20.574V12.5a.5.5 0 0 0-.5-.5h-1a.5.5 0 0 0-.5.5v8.074l-2.426-2.426a.504.504 0 0 0-.713 0l-.713.713a.504.504 0 0 0 0 .713l4.278 4.278c.081.081.23.128.447.14h.254c.217-.012.366-.059.447-.14l4.278-4.278a.504.504 0 0 0 0-.713l-.713-.713a.504.504 0 0 0-.713 0L19 20.574z"/>
        <path fill-rule="nonzero" d="M22.434 28.07a1 1 0 0 1-.807-1.83A9.001 9.001 0 0 0 27 18a8.997 8.997 0 0 0-4.763-7.942 1 1 0 1 1 .943-1.764A10.997 10.997 0 0 1 29 18c0 4.4-2.608 8.324-6.566 10.07zM12.987 8.206a1 1 0 1 1 .912 1.78A8.998 8.998 0 0 0 9 18a9 9 0 0 0 5.302 8.208 1 1 0 1 1-.823 1.823A11 11 0 0 1 7 18c0-4.17 2.342-7.924 5.987-9.793z"/>
    </g>
</svg>
