<svg xmlns="http://www.w3.org/2000/svg" width="36" height="36" viewBox="0 0 36 36">
    <g fill="currentColor" fill-rule="evenodd">
        <path d="M25.332 27.435c-.243.47-.822.77-1.42.397l-4.233-2.645c-1.128-.705-.07-2.398 1.058-1.693l2.741 1.713-.514-14.694-13.432 5.98 2.74 1.712c1.13.705.071 2.398-1.057 1.693l-4.232-2.645c-.599-.374-.583-1.025-.267-1.45.1-.196.266-.36.483-.458l16.305-7.258a.998.998 0 0 1 1.403.877l.624 17.837a.994.994 0 0 1-.2.634zM20.59 16.194l-3.192 5.108c-.705 1.128-2.398.07-1.693-1.058l3.192-5.108c.705-1.129 2.398-.07 1.693 1.058z"/>
        <path fill-opacity=".2" fill-rule="nonzero" d="M18 36C8.059 36 0 27.941 0 18S8.059 0 18 0s18 8.059 18 18-8.059 18-18 18zm0-1.846c8.922 0 16.154-7.232 16.154-16.154S26.922 1.846 18 1.846 1.846 9.078 1.846 18 9.078 34.154 18 34.154z"/>
    </g>
</svg>
