<svg xmlns="http://www.w3.org/2000/svg" width="18" height="19" viewBox="0 0 18 19">
    <g fill="none" fill-rule="evenodd" transform="translate(0 1)">
        <circle cx="9" cy="3.556" r="3.556" stroke="currentColor" stroke-linecap="square" stroke-width="2"/>
        <path fill="currentColor" fill-rule="nonzero" d="M3.255 10.111v-2l-1.64 1.144c.209.3.435.586.676.856h.964zm5.745 3a8.984 8.984 0 0 0 6.709-3H16v7.25h2v-7.25a2 2 0 0 0-2-2h-1.255a6.992 6.992 0 0 1-5.745 3 6.992 6.992 0 0 1-5.745-3H2a2 2 0 0 0-2 2v7.25h2v-7.25h.291a8.984 8.984 0 0 0 6.709 3zm7.386-3.856l-1.64-1.144v2h.963c.241-.27.467-.555.677-.856zm0 0l-1.64-1.144v2h.963c.241-.27.467-.555.677-.856zm-.386.856v7.25h2v-7.25a2 2 0 0 0-2-2h-1.255a6.992 6.992 0 0 1-5.745 3 6.992 6.992 0 0 1-5.745-3H2a2 2 0 0 0-2 2v7.25h2v-7.25h.291a8.984 8.984 0 0 0 6.709 3 8.984 8.984 0 0 0 6.709-3H16zM1.614 9.255l1.64-1.144v2h-.963a9.059 9.059 0 0 1-.677-.856z"/>
    </g>
</svg>
