<svg xmlns="http://www.w3.org/2000/svg" width="20" height="20" viewBox="0 0 20 20">
    <g fill="none" fill-rule="evenodd">
        <path d="M0 0h20v20H0z"/>
        <path fill="currentColor" d="M10 18a7 7 0 1 1 0-14 7 7 0 0 1 0 14m0-16a9 9 0 0 0-9 9 9 9 0 0 0 9 9 9 9 0 0 0 9-9 9 9 0 0 0-9-9"/>
        <path fill="currentColor" d="M1.707 4.707A.999.999 0 1 1 .293 3.293l3-3a.999.999 0 1 1 1.414 1.414l-3 3zM11 10.587l2.707 2.706a.999.999 0 1 1-1.414 1.414l-3-3A1.01 1.01 0 0 1 9 11V7a1 1 0 0 1 2 0v3.586zm8.707-7.294a.999.999 0 1 1-1.414 1.414l-3-3A.999.999 0 1 1 16.707.293l3 3z"/>
    </g>
</svg>
