<svg xmlns="http://www.w3.org/2000/svg" width="15" height="10" viewBox="0 0 15 10">
    <path fill="currentColor" fill-rule="evenodd" d="M7.5 10C4.448 10 2.006 8.553.173 5.66A1.218 1.218 0 0 1 .18 4.345C2.055 1.45 4.495 0 7.5 0s5.446 1.449 7.32 4.346c.259.4.261.912.007 1.313C12.994 8.553 10.552 10 7.5 10zm-.095-1.579C9.153 8.421 10.57 6.89 10.57 5c0-1.89-1.418-3.421-3.166-3.421C5.656 1.579 4.239 3.11 4.239 5c0 1.89 1.417 3.421 3.166 3.421zm0-1.754c-.888 0-1.608-.747-1.608-1.667s.72-1.667 1.608-1.667c.887 0 1.607.747 1.607 1.667s-.72 1.667-1.607 1.667z"/>
</svg>
