<svg xmlns="http://www.w3.org/2000/svg" width="19" height="19" viewBox="0 0 19 19">
    <path fill="currentColor" fill-rule="evenodd" d="M9.717 6.269c-.443-1.42-.068-3.075 1.105-4.248l.664-.664c1.3-1.3 3.194-1.62 4.703-.932l-3.15 3.15c-.55.55-.573 1.417-.052 1.938.52.52 1.389.497 1.938-.053l3.15-3.149c.688 1.509.369 3.402-.932 4.703l-.664.664c-1.173 1.173-2.828 1.548-4.248 1.105l-6.63 6.63a2.88 2.88 0 0 1-.856 2.113c-1.1 1.1-2.835 1.147-3.877.106-1.041-1.042-.994-2.777.106-3.877a2.88 2.88 0 0 1 2.113-.856l6.63-6.63zM1.532 16.968c.694.694 1.852.663 2.585-.07.733-.734.765-1.891.07-2.585-.694-.695-1.851-.663-2.584.07-.734.733-.765 1.89-.07 2.585z"/>
</svg>
