<svg xmlns="http://www.w3.org/2000/svg" width="100%" viewBox="0 0 20 18">
    <path fill="currentColor" d="M19.5 12a.5.5 0 0 1 .5.5v5a.5.5 0 0 1-.5.5H.5a.5.5 0 0 1-.5-.5v-5a.5.5 0 0 1 .5-.5h1a.5.5 0 0 1 .5.5V16h16v-3.5a.5.5 0 0 1 .5-.5h1zM5.86 5.844l-.712-.713a.504.504 0 0 1 0-.713L9.426.139c.08-.081.23-.127.447-.139h.255c.216.012.365.058.446.139l4.279 4.279a.506.506 0 0 1 0 .713l-.714.713a.504.504 0 0 1-.713 0L11 3.418v8.074a.5.5 0 0 1-.5.5h-1a.5.5 0 0 1-.5-.5V3.418L6.574 5.844a.504.504 0 0 1-.713 0z"/>
</svg>
