<svg xmlns="http://www.w3.org/2000/svg" width="36" height="36" viewBox="0 0 36 36">
    <g fill="currentColor" fill-rule="evenodd">
        <path d="M22.853 18.861a.504.504 0 0 1 0 .713l-4.28 4.279c-.08.08-.228.127-.445.139h-.255c-.217-.012-.365-.059-.446-.139l-4.28-4.279a.504.504 0 0 1 0-.713l.714-.713a.504.504 0 0 1 .713 0L17 20.574V12.5a.5.5 0 0 1 .5-.5h1a.5.5 0 0 1 .5.5v8.074l2.427-2.426a.504.504 0 0 1 .713 0l.713.713zm.327-10.663A10.997 10.997 0 0 1 29 17.904a11 11 0 0 1-6.566 10.069 1 1 0 1 1-.807-1.829 9.002 9.002 0 0 0 .61-16.182 1.001 1.001 0 0 1 .943-1.764zM14.302 26.11a1.001 1.001 0 0 1-.823 1.823A11 11 0 0 1 7 17.904c0-4.17 2.342-7.925 5.987-9.794a1 1 0 0 1 .913 1.78A8.997 8.997 0 0 0 9 17.903a9 9 0 0 0 5.302 8.208z"/>
        <path fill-opacity=".2" fill-rule="nonzero" d="M18 36C8.059 36 0 27.941 0 18S8.059 0 18 0s18 8.059 18 18-8.059 18-18 18zm0-1.846c8.922 0 16.154-7.232 16.154-16.154S26.922 1.846 18 1.846 1.846 9.078 1.846 18 9.078 34.154 18 34.154z"/>
    </g>
</svg>
