<svg xmlns="http://www.w3.org/2000/svg" width="19" height="18" viewBox="0 0 19 18">
    <g fill="none" fill-rule="evenodd">
        <path d="M0-2h20v20H0z"/>
        <path fill="currentColor" fill-rule="nonzero" d="M16 8.527a1 1 0 0 1 2 0v6.59A2.882 2.882 0 0 1 15.118 18H2.882A2.882 2.882 0 0 1 0 15.118V2.882A2.882 2.882 0 0 1 2.882 0h8.406a1 1 0 0 1 0 2H2.882A.882.882 0 0 0 2 2.882v12.236c0 .487.395.882.882.882h12.236a.882.882 0 0 0 .882-.882v-6.59zM17.285.318a.995.995 0 0 1 1.393-.063c.403.363.431.98.064 1.377L8.482 12.75a.995.995 0 0 1-1.426.033l-3.15-3.114a.967.967 0 0 1 0-1.379.995.995 0 0 1 1.395 0l2.42 2.392L17.285.318z"/>
    </g>
</svg>
