<svg xmlns="http://www.w3.org/2000/svg" width="36" height="36" viewBox="0 0 36 36">
    <g fill="currentColor" fill-rule="evenodd">
        <path d="M27.5 20a.5.5 0 0 1 .5.5v5a.5.5 0 0 1-.5.5h-19a.5.5 0 0 1-.5-.5v-5a.5.5 0 0 1 .5-.5h1a.5.5 0 0 1 .5.5V24h16v-3.5a.5.5 0 0 1 .5-.5h1zm-10.074-.147l-4.279-4.279a.504.504 0 0 1 0-.713l.714-.713a.503.503 0 0 1 .712 0L17 16.574V8.5a.5.5 0 0 1 .5-.5h1a.5.5 0 0 1 .5.5v8.074l2.426-2.426a.504.504 0 0 1 .713 0l.713.713a.504.504 0 0 1 0 .713l-4.279 4.279c-.08.081-.229.127-.446.14h-.255c-.217-.013-.365-.059-.446-.14z"/>
        <path fill-opacity=".2" fill-rule="nonzero" d="M18 36C8.059 36 0 27.941 0 18S8.059 0 18 0s18 8.059 18 18-8.059 18-18 18zm0-1.846c8.922 0 16.154-7.232 16.154-16.154S26.922 1.846 18 1.846 1.846 9.078 1.846 18 9.078 34.154 18 34.154z"/>
    </g>
</svg>
