<svg xmlns="http://www.w3.org/2000/svg" width="20" height="20" viewBox="0 0 20 20">
    <g fill="none" fill-rule="evenodd">
        <path d="M0 0h20v20H0z"/>
        <path fill="currentColor" d="M16.58 6H7.5a.5.5 0 0 1-.5-.5v-1a.5.5 0 0 1 .5-.5h9.08l-2.427-2.426a.504.504 0 0 1 0-.713l.713-.713a.505.505 0 0 1 .714 0l4.28 4.278c.081.081.128.23.14.447v.254c-.012.217-.059.366-.14.447l-4.28 4.278a.505.505 0 0 1-.714 0l-.713-.713a.504.504 0 0 1 0-.713L16.58 6zM3.42 16l2.427 2.426a.504.504 0 0 1 0 .713l-.713.713a.505.505 0 0 1-.714 0L.14 15.574c-.081-.081-.128-.23-.14-.447v-.254c.012-.217.059-.366.14-.447l4.28-4.278a.505.505 0 0 1 .714 0l.713.713a.504.504 0 0 1 0 .713L3.42 14h9.08a.5.5 0 0 1 .5.5v1a.5.5 0 0 1-.5.5H3.42z"/>
    </g>
</svg>
