<svg xmlns="http://www.w3.org/2000/svg" width="20" height="19" viewBox="0 0 20 19">
    <g fill="none" fill-rule="evenodd">
        <path d="M0 0h20v20H0z"/>
        <path fill="currentColor" fill-rule="nonzero" d="M18 5.517A3.509 3.509 0 0 0 14.5 2c-1.76 0-3.27 1.31-3.51 3.022-.16 1.148-1.82 1.148-1.98 0C8.77 3.31 7.26 2 5.5 2A3.509 3.509 0 0 0 2 5.517c0 3.66 2.804 7.748 8.042 11.309C15.245 13.786 18 9.744 18 5.517zM14.5 0C17.538 0 20 2.47 20 5.517c0 5.165-3.381 9.96-9.515 13.358a1 1 0 0 1-1.032-.038C3.379 14.865 0 10.074 0 5.517 0 2.471 2.462 0 5.5 0 7.331 0 8.985.901 10 2.298A5.572 5.572 0 0 1 14.5 0z"/>
    </g>
</svg>
