<svg xmlns="http://www.w3.org/2000/svg" width="16" height="16" viewBox="0 0 16 16">
    <g fill="none" fill-rule="evenodd">
        <path d="M-2-2h20v20H-2z"/>
        <path fill="currentColor" d="M13.882.034a1 1 0 0 1 1.257 1.018l-.705 13.583a1 1 0 0 1-1.628.725l-3.109-2.517a1 1 0 0 1 1.259-1.554l1.582 1.281.532-10.249-9.914 2.652 1.582 1.281c.43.348.496.977.148 1.406a.998.998 0 0 1-1.406.148L.371 5.291a1 1 0 0 1 .371-1.743L13.882.034zm-3.518 5.63a1 1 0 0 1 .148 1.405l-2.518 3.11a1 1 0 0 1-1.554-1.26l2.518-3.108a.998.998 0 0 1 1.406-.148z"/>
    </g>
</svg>
