<svg xmlns="http://www.w3.org/2000/svg" width="18" height="20" viewBox="0 0 18 20">
    <g fill="none" fill-rule="evenodd" transform="translate(-1)">
        <path d="M0 0h20v20H0z"/>
        <path fill="currentColor" fill-rule="nonzero" d="M3 10v8h14v-8H3zm0-2h14a2 2 0 0 1 2 2v8a2 2 0 0 1-2 2H3a2 2 0 0 1-2-2v-8a2 2 0 0 1 2-2z"/>
        <path fill="currentColor" fill-rule="nonzero" d="M6 9H4V6a6 6 0 1 1 12 0v3h-2V6a4 4 0 1 0-8 0v3z"/>
        <rect width="2" height="5" x="9" y="11" fill="currentColor" rx="1"/>
    </g>
</svg>
