<svg xmlns="http://www.w3.org/2000/svg" width="36" height="36" viewBox="0 0 36 36">
    <g fill="currentColor" fill-rule="evenodd">
        <path d="M19 17h3.5a.5.5 0 0 1 .5.5v1a.5.5 0 0 1-.5.5H19v3.5a.5.5 0 0 1-.5.5h-1a.5.5 0 0 1-.5-.5V19h-3.5a.5.5 0 0 1-.5-.5v-1a.5.5 0 0 1 .5-.5H17v-3.5a.5.5 0 0 1 .5-.5h1a.5.5 0 0 1 .5.5V17zm6 8v-3.5a.5.5 0 0 1 .5-.5h1a.5.5 0 0 1 .5.5v5a.5.5 0 0 1-.5.5h-17a.5.5 0 0 1-.5-.5v-5a.5.5 0 0 1 .5-.5h1a.5.5 0 0 1 .5.5V25h14zm0-14H11v3.5a.5.5 0 0 1-.5.5h-1a.5.5 0 0 1-.5-.5v-5a.5.5 0 0 1 .5-.5h17a.5.5 0 0 1 .5.5v5a.5.5 0 0 1-.5.5h-1a.5.5 0 0 1-.5-.5V11z"/>
        <path fill-opacity=".2" fill-rule="nonzero" d="M18 36C8.059 36 0 27.941 0 18S8.059 0 18 0s18 8.059 18 18-8.059 18-18 18zm0-1.846c8.922 0 16.154-7.232 16.154-16.154S26.922 1.846 18 1.846 1.846 9.078 1.846 18 9.078 34.154 18 34.154z"/>
    </g>
</svg>
