<svg xmlns="http://www.w3.org/2000/svg" width="20" height="20" viewBox="0 0 20 20">
    <path fill="currentColor" fill-rule="nonzero" d="M14.866 18H18v-6H2v6h3.134A.995.995 0 0 1 5 17.5v-2.287a1 1 0 0 1 2 0V17.5a.995.995 0 0 1-.134.5h2.268A.995.995 0 0 1 9 17.5v-2.287a1 1 0 0 1 2 0V17.5a.995.995 0 0 1-.134.5h2.268a.995.995 0 0 1-.134-.5v-2.287a1 1 0 0 1 2 0V17.5a.995.995 0 0 1-.134.5zM13 9H2v1h16V9h-5zM7 7V3a3 3 0 1 1 6 0v4h5a2 2 0 0 1 2 2v9a2 2 0 0 1-2 2H2a2 2 0 0 1-2-2V9a2 2 0 0 1 2-2h5zm2 0h2V3a1 1 0 0 0-2 0v4z"/>
</svg>
