<svg xmlns="http://www.w3.org/2000/svg" width="20" height="19" viewBox="0 0 20 19">
    <path fill="currentColor" fill-rule="nonzero" d="M9.208 9.857a1.002 1.002 0 0 1-.228-.113A4.5 4.5 0 0 0 2.027 13H7.62c.338 0 .637.167.818.424a6.53 6.53 0 0 1 1.979-1.647 4.501 4.501 0 0 1-1.208-1.92zm-5.792-2.08a4.5 4.5 0 1 1 7.577-3.014 4.5 4.5 0 0 1 5.592 7.014A6.499 6.499 0 0 1 20 17.5c0 .086-.01.17-.032.25A1.002 1.002 0 0 1 19 19H8a1 1 0 0 1-.968-1.25A1.002 1.002 0 0 1 7 17.5c0-.886.177-1.73.498-2.5H1a1 1 0 0 1-.968-1.25A1.002 1.002 0 0 1 0 13.5a6.499 6.499 0 0 1 3.416-5.723zM6.5 7a2.5 2.5 0 1 0 0-5 2.5 2.5 0 0 0 0 5zm7 4a2.5 2.5 0 1 0 0-5 2.5 2.5 0 0 0 0 5zm4.473 6a4.5 4.5 0 0 0-8.946 0h8.946z"/>
</svg>
