<svg xmlns="http://www.w3.org/2000/svg" width="100%" viewBox="0 0 20 18">
    <path fill="currentColor" d="M19.5 12a.5.5 0 0 1 .5.5v5a.5.5 0 0 1-.5.5H.5a.5.5 0 0 1-.5-.5v-5a.5.5 0 0 1 .5-.5h1a.5.5 0 0 1 .5.5V16h16v-3.5a.5.5 0 0 1 .5-.5h1zm-10.074-.147L5.147 7.574a.504.504 0 0 1 0-.713l.714-.713a.503.503 0 0 1 .712 0L9 8.574V.5a.5.5 0 0 1 .5-.5h1a.5.5 0 0 1 .5.5v8.074l2.426-2.426a.504.504 0 0 1 .713 0l.713.713a.504.504 0 0 1 0 .713l-4.279 4.279c-.08.081-.229.127-.446.14h-.255c-.217-.013-.365-.059-.446-.14z"/>
</svg>
