<svg xmlns="http://www.w3.org/2000/svg" width="93" height="35" viewBox="0 0 93 35">
    <g fill="currentColor" fill-rule="evenodd">
        <path d="M6.439 1.964h.705v.581h.017c.116-.238.299-.41.548-.519.249-.108.523-.162.822-.162.332 0 .621.061.867.183.247.122.452.286.615.494.163.207.286.447.37.718.082.271.124.56.124.864 0 .304-.04.592-.12.863-.08.271-.203.508-.366.71a1.722 1.722 0 0 1-.614.477 2.121 2.121 0 0 1-1.598.033 1.509 1.509 0 0 1-.362-.203 1.137 1.137 0 0 1-.286-.32h-.017v2.209H6.44V1.964zm3.32 2.109c0-.2-.026-.395-.078-.586a1.58 1.58 0 0 0-.241-.51 1.18 1.18 0 0 0-.415-.357 1.26 1.26 0 0 0-.594-.133c-.238 0-.44.047-.606.141a1.215 1.215 0 0 0-.407.37 1.545 1.545 0 0 0-.228.518 2.489 2.489 0 0 0 .004 1.2c.05.197.129.37.237.519.108.15.247.27.419.361.172.092.38.137.623.137s.447-.047.61-.141c.163-.094.295-.219.394-.374.1-.155.172-.332.216-.53.044-.2.067-.405.067-.615zm2.093.041c0 .26.034.491.104.693.069.202.164.371.286.507a1.273 1.273 0 0 0 .946.42c.183 0 .356-.037.52-.109.163-.072.305-.175.427-.311a1.45 1.45 0 0 0 .286-.507c.07-.202.104-.433.104-.693 0-.26-.034-.491-.104-.693a1.496 1.496 0 0 0-.286-.51 1.22 1.22 0 0 0-.428-.316 1.273 1.273 0 0 0-.518-.108c-.183 0-.356.036-.52.108a1.22 1.22 0 0 0-.427.315 1.496 1.496 0 0 0-.286.511c-.07.202-.104.433-.104.693zm-.747 0c0-.315.044-.61.132-.884.089-.274.222-.512.399-.714.177-.202.396-.361.656-.477.26-.117.559-.175.897-.175.343 0 .643.058.9.175.258.116.475.275.652.477.177.202.31.44.399.714.088.274.132.569.132.884 0 .316-.044.61-.132.88a2.009 2.009 0 0 1-.399.71c-.177.202-.394.36-.652.473-.257.114-.557.17-.9.17-.338 0-.637-.056-.897-.17a1.833 1.833 0 0 1-.656-.473 2.009 2.009 0 0 1-.399-.71 2.82 2.82 0 0 1-.132-.88zm9.19 2.142h-.747l-.872-3.412h-.016l-.864 3.412h-.763l-1.379-4.292h.78l.972 3.512h.017l.863-3.512h.772l.897 3.512h.017l.963-3.512h.73l-1.37 4.292zm4.94-2.557a1.444 1.444 0 0 0-.112-.473 1.21 1.21 0 0 0-.639-.644 1.207 1.207 0 0 0-.486-.095c-.182 0-.347.032-.494.095a1.14 1.14 0 0 0-.377.262c-.106.11-.189.24-.25.386a1.47 1.47 0 0 0-.107.47h2.465zm.681 1.196c-.094.481-.301.844-.623 1.087-.32.244-.725.366-1.212.366-.343 0-.64-.056-.892-.166a1.76 1.76 0 0 1-.635-.465c-.172-.2-.3-.438-.386-.714a3.44 3.44 0 0 1-.146-.905c0-.327.05-.626.15-.897.1-.271.24-.507.419-.706a1.902 1.902 0 0 1 1.449-.63c.382 0 .699.078.95.236.252.158.454.358.607.602.152.243.257.509.315.797.058.288.082.562.07.822H22.77c-.006.188.016.366.066.535.05.17.13.319.24.449.111.13.253.233.424.311.172.077.374.116.606.116.3 0 .544-.069.735-.207.191-.139.317-.35.378-.631h.697zm.772-2.931h.665v.905h.016c.172-.349.382-.606.631-.772.25-.166.565-.244.947-.233v.747c-.283 0-.523.04-.723.117-.199.077-.36.19-.481.34-.122.15-.21.33-.266.544a2.935 2.935 0 0 0-.083.735v1.91h-.706V1.963zm5.538 1.735a1.444 1.444 0 0 0-.112-.473 1.21 1.21 0 0 0-.64-.644 1.207 1.207 0 0 0-.485-.095c-.183 0-.347.032-.494.095a1.14 1.14 0 0 0-.378.262c-.105.11-.188.24-.249.386a1.47 1.47 0 0 0-.108.47h2.466zm.68 1.196c-.093.481-.3.844-.622 1.087-.32.244-.725.366-1.212.366-.343 0-.64-.056-.893-.166a1.76 1.76 0 0 1-.635-.465c-.171-.2-.3-.438-.386-.714a3.44 3.44 0 0 1-.145-.905c0-.327.05-.626.15-.897.1-.271.239-.507.419-.706a1.902 1.902 0 0 1 1.448-.63c.382 0 .7.078.951.236.252.158.454.358.606.602.152.243.258.509.316.797.058.288.081.562.07.822H29.76c-.005.188.017.366.067.535.05.17.13.319.24.449.111.13.252.233.424.311.171.077.373.116.606.116.299 0 .544-.069.735-.207.19-.139.317-.35.377-.631h.698zm1.313-.748c0 .2.026.395.079.586.052.19.132.36.24.51.108.15.247.269.415.357.17.089.367.133.594.133.238 0 .44-.047.606-.141.166-.094.302-.217.407-.37.105-.152.181-.325.228-.518a2.489 2.489 0 0 0-.004-1.2 1.51 1.51 0 0 0-.237-.519 1.209 1.209 0 0 0-.419-.361 1.31 1.31 0 0 0-.622-.137c-.238 0-.44.047-.607.141a1.124 1.124 0 0 0-.398.374c-.1.155-.172.332-.216.531-.044.2-.066.404-.066.614zm3.32 2.11h-.705v-.582h-.017c-.116.238-.299.41-.548.515-.249.105-.523.158-.822.158-.332 0-.62-.061-.867-.183a1.786 1.786 0 0 1-.615-.49 2.134 2.134 0 0 1-.369-.714 2.934 2.934 0 0 1-.125-.863c0-.305.04-.593.12-.864.081-.271.203-.508.366-.71.163-.202.368-.362.614-.481.247-.12.533-.179.86-.179.11 0 .23.011.357.033.127.023.254.06.382.113.127.052.247.121.36.207.114.086.21.192.287.32h.017V.328h.706v5.928zM40.96.327h.706v2.217h.017c.116-.238.298-.41.548-.519.249-.108.523-.162.821-.162.333 0 .622.061.868.183s.451.286.614.494c.164.207.287.447.37.718.083.271.124.56.124.864 0 .304-.04.592-.12.863-.08.271-.202.508-.365.71a1.722 1.722 0 0 1-.615.477 2.121 2.121 0 0 1-1.598.033 1.509 1.509 0 0 1-.361-.203 1.137 1.137 0 0 1-.286-.32h-.017v.573h-.706V.328zm3.321 3.745c0-.2-.026-.395-.079-.586a1.58 1.58 0 0 0-.24-.51 1.18 1.18 0 0 0-.416-.357 1.26 1.26 0 0 0-.593-.133c-.238 0-.44.047-.606.141a1.215 1.215 0 0 0-.407.37 1.545 1.545 0 0 0-.228.518 2.489 2.489 0 0 0 .004 1.2c.05.197.128.37.236.519.108.15.248.27.42.361.171.092.379.137.622.137.244 0 .447-.047.61-.141.164-.094.295-.219.395-.374.1-.155.172-.332.216-.53.044-.2.066-.405.066-.615zm3.204 2.756c-.083.21-.165.388-.245.531-.08.144-.169.262-.265.353a.902.902 0 0 1-.324.2 1.246 1.246 0 0 1-.411.062c-.083 0-.166-.006-.25-.017a1.176 1.176 0 0 1-.24-.058v-.647a1.185 1.185 0 0 0 .415.1.606.606 0 0 0 .361-.105.635.635 0 0 0 .22-.294l.29-.723-1.701-4.267h.797l1.254 3.512h.016l1.204-3.512h.747l-1.868 4.865z"/>
        <path fill-rule="nonzero" d="M53.476 5.602v-.918h35.197a4.095 4.095 0 0 1 4.084 4.084v22.11a4.095 4.095 0 0 1-4.084 4.084H4.084A4.095 4.095 0 0 1 0 30.878V8.768a4.095 4.095 0 0 1 4.084-4.084v.918A3.177 3.177 0 0 0 .918 8.768v22.11a3.177 3.177 0 0 0 3.166 3.166h84.589a3.177 3.177 0 0 0 3.166-3.166V8.768a3.177 3.177 0 0 0-3.166-3.166H53.476z"/>
        <path d="M12.821 20.798l-1.343-5.963-1.364 5.963h2.707zm.299-8.557l3.773 13.812h-2.686l-.832-3.234H9.56l-.853 3.234H6l3.88-13.812h3.24zM17.582 26.053h2.629v-14.35h-2.63zM27.387 19.479c0-.469-.125-.807-.387-1.014-.263-.207-.661-.311-1.201-.311-.455 0-.798.14-1.04.421-.241.282-.356.636-.356 1.064v2.73c0 .442.127.827.39 1.155.263.328.613.492 1.068.492 1.023 0 1.526-.455 1.526-1.365v-3.172zm-.583-3.549c.64 0 1.17.065 1.588.192.42.129.753.33 1.002.607.249.276.405.633.498 1.071.092.438.124.96.124 1.567v3.294c0 1.132-.238 2.012-.743 2.638-.504.627-1.346.94-2.54.94-.483 0-.938-.102-1.378-.306-.44-.204-.81-.517-.952-.938V30.5h-2.7V16.149h2.053l.341 1.36c.256-.49.622-.878 1.098-1.156a3.13 3.13 0 0 1 1.61-.423zM36.14 15.93c.612 0 1.112.071 1.503.213.391.141.7.353.928.636.227.283.383.64.476 1.072.092.431.135.936.135 1.516v6.686h-2.63v-6.686c0-.432-.088-.741-.259-.93-.17-.189-.485-.283-.94-.283-.255 0-.49.057-.704.172a1.857 1.857 0 0 0-.554.454 2.206 2.206 0 0 0-.38.627c-.086.23-.147.465-.147.707v5.94H30.94V11.5h2.63v5.663c.355-.39.731-.693 1.136-.91.405-.215.895-.323 1.436-.323M45.008 21.489l-2.416.525v1.274c0 .35.103.573.26.667.156.094.424.141.78.141.369 0 .688-.114.965-.343.277-.23.41-.526.41-.89V21.49zm-.96-5.559c1.237 0 2.14.267 2.722.799.583.532.867 1.384.867 2.557v6.767h-1.968l-.235-1.382a4.505 4.505 0 0 1-1.097 1.077 2.388 2.388 0 0 1-1.397.453c-1.023 0-1.787-.227-2.256-.679-.469-.45-.72-1.163-.72-2.133v-2.567l5.115-1.01v-.526c0-.472-.089-.795-.28-.97-.193-.175-.534-.263-1.03-.263-.186 0-.4.034-.65.1a6.494 6.494 0 0 0-.744.253c-.25.101-.483.21-.703.324-.22.115-.402.226-.544.333l-.916-1.738a8.004 8.004 0 0 1 1.812-.96 8.262 8.262 0 0 1 1.033-.313c.349-.081.679-.122.992-.122zM54.529 15.728c0-.43-.082-.732-.274-.921-.191-.189-.5-.275-.955-.275h-1.613v4.245H53.3c.397 0 .692-.076.913-.21.22-.135.316-.406.316-.797v-2.042zm-1.23-3.42c1.208 0 2.14.272 2.836.831.696.56 1.023 1.41 1.023 2.569v2.082c0 .525-.078.99-.277 1.395-.2.404-.462.737-.81 1-.349.263-.752.47-1.22.605-.47.135-.969.21-1.509.21h-1.655v5.053h-2.7V12.31H53.3zM63.268 19.367c0-.512-.106-.842-.326-.99-.221-.149-.592-.223-1.118-.223-.483 0-.876.098-1.132.293-.256.195-.408.509-.408.94v3.355c0 .54.135.886.355 1.041.22.155.634.233 1.217.233.455 0 .806-.095 1.047-.283.242-.189.365-.512.365-.97v-3.396zm-1.442-3.437a5.5 5.5 0 0 1 1.577.223c.498.148.935.37 1.311.667.377.296.661.657.874 1.081.213.425.31.92.31 1.486v3.375c0 .566-.093 1.065-.3 1.496a3.028 3.028 0 0 1-.846 1.082c-.363.29-.786.512-1.277.667a5.315 5.315 0 0 1-1.608.232c-.597 0-1.15-.074-1.662-.222a3.86 3.86 0 0 1-1.332-.667 3.078 3.078 0 0 1-.891-1.092 3.43 3.43 0 0 1-.327-1.496v-3.375c0-.566.124-1.061.338-1.486.213-.424.513-.785.883-1.081a3.79 3.79 0 0 1 1.315-.667 5.795 5.795 0 0 1 1.635-.223zM67.105 16.149h2.63v9.904h-2.63V16.15zm0-3.84h2.63v2.56h-2.63v-2.56zM76.342 15.91c1.194 0 2.025.287 2.494.86.469.572.703 1.431.703 2.576v6.707h-2.7v-6.266c0-.457-.053-.847-.216-1.17-.164-.322-.473-.483-.956-.483-.256 0-.48.057-.686.171-.206.114-.38.265-.529.454-.15.188-.29.4-.375.635a2.118 2.118 0 0 0-.15.715v5.944h-2.63V16.15H73.7l.213 1.034c.298-.435.636-.759 1.013-.963.376-.204.848-.31 1.417-.31M84.655 23.955c.427 0 .771-.044 1.034-.131.263-.088.53-.185.8-.293L87 25.309c-.44.216-.899.415-1.375.597a3.795 3.795 0 0 1-1.353.272c-1.024 0-1.748-.178-2.175-.535-.426-.357-.64-1.021-.64-1.991V17.9h-1.633v-1.752h1.634v-2.897h2.629v2.897h1.99V17.9h-1.99v5.427c0 .149.06.29.167.425a.498.498 0 0 0 .401.202"/>
    </g>
</svg>
